Coordinates
version=1
nRows=9
nColumns=24
inDegrees=yes

Units are S.I. units (second, meters, Newtons, ...)
Angles are in degrees.

endheader
time	pelvis_tilt	pelvis_list	pelvis_rotation	pelvis_tx	pelvis_ty	pelvis_tz	hip_flexion_r	hip_adduction_r	hip_rotation_r	knee_angle_r	ankle_angle_r	subtalar_angle_r	mtp_angle_r	hip_flexion_l	hip_adduction_l	hip_rotation_l	knee_angle_l	ankle_angle_l	subtalar_angle_l	mtp_angle_l	lumbar_extension	lumbar_bending	lumbar_rotation
      2.89500000	      5.10744027	     11.51760453	     -7.62426837	      0.48627814	      0.97844952	      0.01070512	     -2.04639874	    -14.78271883	     -3.86436156	    -42.63201653	      2.68075093	      1.54112859	     33.41881026	     15.19425204	     13.72494980	    -13.83140552	    -11.95460858	     -5.43069610	     -6.01412882	     46.80789564	    -19.11854482	    -13.43962058	     14.72461891
      2.90000000	      5.09932306	     11.75854181	     -7.80965672	      0.49113301	      0.97837188	      0.01059547	     -0.95734475	    -15.12586970	     -3.04548902	    -44.49568330	      1.69672826	      1.60900529	     33.54653223	     15.30633959	     13.92879467	    -13.94589363	    -12.54436342	     -5.08553764	     -6.22580106	     46.51062513	    -19.07627340	    -13.78623105	     14.83560124
      2.90500000	      4.99300932	     11.98963725	     -7.90893411	      0.49591879	      0.97815445	      0.01048998	      0.23688538	    -15.39843326	     -2.25691855	    -46.33783836	      0.71185006	      1.59696076	     33.71488605	     15.52016565	     14.10968408	    -14.06188839	    -13.15584967	     -4.67621132	     -6.26597706	     45.83544495	    -18.94813203	    -14.09884144	     14.74737203
      2.91000000	      4.96342056	     12.22450043	     -8.03093502	      0.50074622	      0.97802668	      0.01038766	      1.34708099	    -15.67549948	     -1.48443793	    -48.11518600	     -0.19257054	      1.64586825	     33.71562964	     15.61225210	     14.31174828	    -14.23593111	    -13.69192148	     -4.24192437	     -6.24081152	     45.11317530	    -18.88995369	    -14.42447925	     14.73914756
      2.91500000	      4.97896397	     12.46400661	     -8.17180236	      0.50559323	      0.97794234	      0.01027667	      2.41017756	    -15.95084575	     -0.71926571	    -49.83364354	     -0.95522850	      1.73299614	     33.56370868	     15.62049847	     14.53146034	    -14.46635889	    -14.15491827	     -3.79855606	     -6.19249915	     44.57679206	    -18.86718071	    -14.75881978	     14.80240551
      2.92000000	      4.94336311	     12.67878879	     -8.24953863	      0.51040177	      0.97780025	      0.01014532	      3.50360834	    -16.16315825	     -0.00184124	    -51.49024967	     -1.60574566	      1.85355978	     33.22190945	     15.65861388	     14.72595226	    -14.69012186	    -14.59856376	     -3.32952008	     -6.03656825	     43.89700619	    -18.80529839	    -15.04648995	     14.74384969
      2.92500000	      4.86710409	     12.87827011	     -8.21998564	      0.51521588	      0.97762172	      0.00990550	      4.58563561	    -16.33574191	      0.59657364	    -53.07677818	     -2.05984930	      1.92892837	     32.28386887	     15.70647394	     14.92723694	    -14.80440235	    -15.02342929	     -2.81896986	     -5.79753414	     42.58326809	    -18.72382367	    -15.28475127	     14.53297011
      2.93000000	      4.98949785	     13.06413874	     -8.34071684	      0.52010941	      0.97775239	      0.00982336	      5.45834617	    -16.51473596	      1.27665238	    -54.53889310	     -2.40644060	      2.14584511	     31.92592764	     15.47496927	     15.12868087	    -15.13202040	    -15.28566566	     -2.40856546	     -5.57434433	     42.28765567	    -18.81657339	    -15.55892113	     14.54027539
      2.93500000	      4.93168060	     13.23489315	     -8.35892635	      0.52489196	      0.97761717	      0.00964577	      6.51640526	    -16.62469843	      1.89494182	    -55.98256191	     -2.59553484	      2.26944361	     31.30016214	     15.43727271	     15.29955084	    -15.37964141	    -15.57651070	     -1.97636816	     -5.32107851	     41.77005083	    -18.73805478	    -15.77629413	     14.43439399
